<svg xmlns="http://www.w3.org/2000/svg">
    <symbol id="card-rate" width="16" height="21" viewBox="0 0 16 21" fill="none" xmlns="http://www.w3.org/2000/svg">
        <path d="M1 21C0.447715 21 -1.95703e-08 20.5523 -4.37114e-08 20L-4.80825e-07 10C-5.04966e-07 9.44771 0.447715 9 0.999999 9C1.55228 9 2 9.44772 2 10L2 20C2 20.5523 1.55228 21 1 21Z" fill="#E5E6E8"/>
        <path d="M8 20.8895C7.44772 20.8895 7 20.4418 7 19.8895L7 6.88953C7 6.33724 7.44771 5.88953 8 5.88953C8.55228 5.88953 9 6.33724 9 6.88953L9 19.8895C9 20.4418 8.55228 20.8895 8 20.8895Z" fill="#E5E6E8"/>
        <path d="M15 20.8895C14.4477 20.8895 14 20.4418 14 19.8895L14 1.88953C14 1.33724 14.4477 0.889526 15 0.889526C15.5523 0.889526 16 1.33724 16 1.88953L16 19.8895C16 20.4418 15.5523 20.8895 15 20.8895Z" fill="#E5E6E8"/>
    </symbol>
    <symbol id="card-heart" width="24" height="20" viewBox="0 0 24 20" fill="none" xmlns="http://www.w3.org/2000/svg">
        <path d="M21.4587 1.95979C18.921 -0.652909 14.7927 -0.652909 12.2557 1.95979L11.6665 2.56628L11.0775 1.95979C8.54053 -0.653262 4.4119 -0.653262 1.8749 1.95979C-0.610587 4.51944 -0.626726 8.57675 1.83747 11.3977C4.08499 13.9698 10.7135 19.5265 10.9948 19.7617C11.1857 19.9215 11.4154 19.9993 11.6438 19.9993C11.6513 19.9993 11.6589 19.9993 11.6661 19.999C11.9024 20.0103 12.1403 19.9268 12.3374 19.7617C12.6187 19.5265 19.2479 13.9698 21.4961 11.3974C23.96 8.57675 23.9438 4.51944 21.4587 1.95979ZM19.9646 9.97823C18.2122 11.983 13.3954 16.1178 11.6661 17.585C9.93678 16.1181 5.12101 11.9837 3.36901 9.97858C1.64998 8.01093 1.63384 5.20868 3.33158 3.46028C4.19865 2.56769 5.33735 2.12105 6.47605 2.12105C7.61474 2.12105 8.75344 2.56734 9.62051 3.46028L10.9158 4.79421C11.07 4.953 11.2643 5.04777 11.4683 5.08102C11.7993 5.15422 12.1585 5.05909 12.4161 4.79457L13.7121 3.46028C15.4465 1.67475 18.2679 1.67511 20.0013 3.46028C21.6991 5.20868 21.6829 8.01093 19.9646 9.97823Z" fill="currentColor"/>
    </symbol>
    <symbol id="card-star" width="18" height="18" viewBox="0 0 18 18" fill="none" xmlns="http://www.w3.org/2000/svg">
        <path d="M8.47541 1.06294C8.54021 0.931628 8.57262 0.865973 8.60122 0.828156C8.80128 0.563649 9.19872 0.563649 9.39878 0.828156C9.42738 0.865973 9.45979 0.931628 9.52459 1.06294L11.8028 5.67912C11.8221 5.71814 11.8317 5.73765 11.8423 5.7553C11.9122 5.87167 12.0264 5.95464 12.1586 5.98513C12.1787 5.98976 12.2002 5.99288 12.2433 5.99914L17.3375 6.73938C17.4825 6.76044 17.5549 6.77096 17.5997 6.78648C17.9131 6.89501 18.0359 7.273 17.8462 7.54501C17.819 7.5839 17.7666 7.635 17.6618 7.73721L13.9755 11.3304C13.9444 11.3608 13.9288 11.376 13.9153 11.3915C13.8262 11.4939 13.7826 11.6282 13.7944 11.7634C13.7962 11.7839 13.7999 11.8053 13.8073 11.8482L14.6775 16.9219C14.7022 17.0662 14.7146 17.1384 14.7137 17.1858C14.7073 17.5174 14.3858 17.751 14.0685 17.6546C14.0231 17.6408 13.9583 17.6067 13.8287 17.5386L9.27222 15.1431C9.23371 15.1229 9.21445 15.1127 9.19551 15.1047C9.07057 15.0516 8.92943 15.0516 8.80449 15.1047C8.78555 15.1127 8.76629 15.1229 8.72778 15.1431L4.17133 17.5386C4.04172 17.6067 3.97691 17.6408 3.93155 17.6546C3.61422 17.751 3.29269 17.5174 3.28631 17.1858C3.28539 17.1384 3.29777 17.0662 3.32252 16.9219L4.19273 11.8482C4.20008 11.8053 4.20376 11.7839 4.20556 11.7634C4.21743 11.6282 4.17382 11.4939 4.08473 11.3915C4.07122 11.376 4.05564 11.3608 4.02448 11.3304L0.338241 7.73721C0.233384 7.635 0.180956 7.5839 0.153829 7.54501C-0.0359105 7.273 0.0869045 6.89501 0.400289 6.78648C0.445094 6.77096 0.517548 6.76044 0.662455 6.73938L5.75672 5.99914C5.79978 5.99288 5.82131 5.98976 5.84137 5.98513C5.97364 5.95464 6.08783 5.87167 6.1577 5.7553C6.1683 5.73765 6.17793 5.71814 6.19719 5.67912L8.47541 1.06294Z" fill="#FFC800"/>
    </symbol>
</svg>